G04 Layer: TopSilkscreenLayer*
G04 EasyEDA v6.5.39, 2023-12-18 19:06:56*
G04 b3e2410d46ed40f7919fa36850a0afc5,10*
G04 Gerber Generator version 0.2*
G04 Scale: 100 percent, Rotated: No, Reflected: No *
G04 Dimensions in millimeters *
G04 leading zeros omitted , absolute positions ,4 integer and 5 decimal *
%FSLAX45Y45*%
%MOMM*%

%ADD10C,0.1524*%
%ADD11C,0.2540*%
%ADD12C,0.2000*%
%ADD13C,0.2500*%
%ADD14C,0.6000*%

%LPD*%
D10*
X2088591Y1649984D02*
G01*
X2088591Y1758950D01*
X2088591Y1649984D02*
G01*
X2052269Y1649984D01*
X2036521Y1655063D01*
X2026361Y1665478D01*
X2021027Y1675892D01*
X2015947Y1691639D01*
X2015947Y1717547D01*
X2021027Y1733042D01*
X2026361Y1743455D01*
X2036521Y1753870D01*
X2052269Y1758950D01*
X2088591Y1758950D01*
X1981657Y1670812D02*
G01*
X1971243Y1665478D01*
X1955495Y1649984D01*
X1955495Y1758950D01*
X3897884Y2717800D02*
G01*
X4006850Y2717800D01*
X3897884Y2717800D02*
G01*
X3897884Y2764536D01*
X3902963Y2780029D01*
X3908297Y2785363D01*
X3918711Y2790444D01*
X3929125Y2790444D01*
X3939540Y2785363D01*
X3944620Y2780029D01*
X3949700Y2764536D01*
X3949700Y2717800D01*
X3949700Y2754121D02*
G01*
X4006850Y2790444D01*
X3918711Y2824734D02*
G01*
X3913377Y2835147D01*
X3897884Y2850895D01*
X4006850Y2850895D01*
X2387600Y3582415D02*
G01*
X2387600Y3504437D01*
X2392679Y3488944D01*
X2403093Y3478529D01*
X2418841Y3473450D01*
X2429256Y3473450D01*
X2444750Y3478529D01*
X2455163Y3488944D01*
X2460243Y3504437D01*
X2460243Y3582415D01*
X2494534Y3561587D02*
G01*
X2504947Y3566921D01*
X2520695Y3582415D01*
X2520695Y3473450D01*
X786384Y2997187D02*
G01*
X864362Y2997187D01*
X879855Y3002267D01*
X890270Y3012681D01*
X895350Y3028429D01*
X895350Y3038843D01*
X890270Y3054337D01*
X879855Y3064751D01*
X864362Y3069831D01*
X786384Y3069831D01*
X786384Y3114535D02*
G01*
X786384Y3171685D01*
X828039Y3140697D01*
X828039Y3156191D01*
X833120Y3166605D01*
X838200Y3171685D01*
X853947Y3177019D01*
X864362Y3177019D01*
X879855Y3171685D01*
X890270Y3161271D01*
X895350Y3145777D01*
X895350Y3130283D01*
X890270Y3114535D01*
X885189Y3109455D01*
X874776Y3104121D01*
D11*
X2522799Y1772401D02*
G01*
X1642800Y1772401D01*
X1642800Y2342400D01*
X2522799Y2342400D01*
X2522799Y1772401D01*
X2373028Y1787400D02*
G01*
X2373028Y2327399D01*
X2332388Y1787400D02*
G01*
X2332388Y2311400D01*
X3975582Y2232101D02*
G01*
X3975582Y2145212D01*
X3975582Y3432098D02*
G01*
X3975582Y3518987D01*
X4250100Y3432098D02*
G01*
X4250100Y2232101D01*
X3700099Y2232101D02*
G01*
X4250100Y2232101D01*
X3700099Y3432098D02*
G01*
X4250100Y3432098D01*
X3700099Y2232101D02*
G01*
X3700099Y3432098D01*
D12*
X1931700Y3023100D02*
G01*
X1931670Y3022600D01*
X1931670Y3224021D01*
X2921761Y3224021D01*
X2921761Y2694178D01*
X1931670Y2694178D01*
X1931670Y2895600D01*
X1931700Y2895099D01*
D11*
X944501Y2647187D02*
G01*
X1214501Y2647187D01*
X944498Y3347186D02*
G01*
X1214498Y3347186D01*
X1214498Y3347186D02*
G01*
X1214501Y2647187D01*
X944501Y2647187D02*
G01*
X944498Y3347186D01*
D12*
G75*
G01*
X1931700Y2895100D02*
G03*
X1931700Y3022100I0J63500D01*
D13*
G75*
G01*
X1902206Y2578100D02*
G03*
X1902206Y2578354I12499J127D01*
D14*
G75*
G01*
X1980692Y2794000D02*
G03*
X1980692Y2794508I29999J254D01*
M02*
